<svg xmlns="http://www.w3.org/2000/svg" viewBox="0 0 155 56" fill="none" style="&#10;">
    <path fill-rule="evenodd" clip-rule="evenodd"
        d="M19.7298 47.4235C30.4571 47.4235 39.1533 38.7273 39.1533 28.0001C39.1533 24.8689 38.4123 21.9107 37.0962 19.2913L18.6702 37.7173L10.0226 29.0697L14.0921 25.0002L18.6702 29.5784L33.7212 14.5274C30.1879 10.859 25.2254 8.57666 19.7298 8.57666C9.00257 8.57666 0.306396 17.2728 0.306396 28.0001C0.306396 38.7273 9.00257 47.4235 19.7298 47.4235Z"
        fill="#ED5993" />
    <path
        d="M149.279 44.3652V41.0865L146.556 36.3628H148.118L149.957 39.5527L151.791 36.3628H153.353L150.635 41.0865V44.3652H149.279Z"
        fill="#ED5993" />
    <path d="M141.55 44.3638V37.6173H138.96V36.3613H145.479V37.6173H142.889V44.3638H141.55Z" fill="#ED5993" />
    <path d="M135.948 44.3638V36.3613H137.287V44.3638H135.948Z" fill="#ED5993" />
    <path
        d="M130.804 44.5353C130.218 44.5353 129.69 44.4335 129.22 44.2297C128.753 44.0259 128.368 43.7351 128.064 43.3572C127.764 42.9756 127.573 42.5236 127.491 42.0012L128.881 41.79C128.999 42.2643 129.242 42.631 129.609 42.8904C129.979 43.1497 130.405 43.2794 130.887 43.2794C131.172 43.2794 131.441 43.2349 131.693 43.146C131.945 43.0571 132.148 42.9274 132.304 42.757C132.463 42.5866 132.543 42.3773 132.543 42.129C132.543 42.0179 132.524 41.916 132.487 41.8234C132.45 41.7271 132.395 41.6419 132.321 41.5678C132.25 41.4937 132.158 41.427 132.043 41.3677C131.932 41.3047 131.802 41.251 131.654 41.2065L129.586 40.5952C129.409 40.5434 129.216 40.4748 129.009 40.3896C128.805 40.3007 128.61 40.1803 128.425 40.0284C128.243 39.8728 128.093 39.6764 127.975 39.4393C127.86 39.1985 127.803 38.9021 127.803 38.5502C127.803 38.0352 127.932 37.6036 128.192 37.2553C128.455 36.9034 128.807 36.6403 129.247 36.4662C129.692 36.2921 130.185 36.2069 130.726 36.2106C131.274 36.2143 131.763 36.3087 132.193 36.494C132.623 36.6755 132.982 36.9404 133.271 37.2887C133.56 37.6369 133.764 38.0574 133.882 38.5502L132.443 38.8002C132.384 38.5187 132.269 38.2797 132.098 38.0834C131.932 37.8833 131.726 37.7314 131.482 37.6277C131.241 37.5239 130.983 37.4684 130.709 37.4609C130.442 37.4572 130.194 37.498 129.964 37.5832C129.738 37.6647 129.555 37.7833 129.414 37.9389C129.277 38.0945 129.209 38.276 129.209 38.4835C129.209 38.6798 129.268 38.841 129.386 38.967C129.505 39.0892 129.651 39.1874 129.825 39.2615C130.003 39.3319 130.183 39.3912 130.364 39.4393L131.798 39.8395C131.995 39.8913 132.215 39.9617 132.46 40.0506C132.704 40.1395 132.939 40.2637 133.165 40.423C133.391 40.5823 133.577 40.7916 133.721 41.0509C133.869 41.3103 133.943 41.64 133.943 42.0401C133.943 42.4551 133.856 42.82 133.682 43.1349C133.512 43.4461 133.28 43.7055 132.988 43.9129C132.695 44.1204 132.36 44.276 131.982 44.3797C131.607 44.4835 131.215 44.5353 130.804 44.5353Z"
        fill="#ED5993" />
    <path
        d="M119.884 44.3652V36.3628H123.19C123.268 36.3628 123.368 36.3665 123.49 36.3739C123.613 36.3776 123.726 36.3887 123.829 36.4073C124.292 36.4776 124.674 36.6314 124.974 36.8685C125.278 37.1056 125.502 37.4057 125.646 37.7688C125.795 38.1281 125.869 38.5283 125.869 38.9691C125.869 39.6212 125.704 40.1825 125.374 40.653C125.044 41.1198 124.539 41.4088 123.857 41.5199L123.285 41.5699H121.223V44.3652H119.884ZM124.479 44.3652L122.901 41.1087L124.263 40.8086L125.997 44.3652H124.479ZM121.223 40.3196H123.135C123.209 40.3196 123.292 40.3159 123.385 40.3084C123.477 40.301 123.563 40.2862 123.64 40.264C123.863 40.2084 124.037 40.1102 124.163 39.9695C124.292 39.8287 124.383 39.6694 124.435 39.4915C124.491 39.3137 124.518 39.1396 124.518 38.9691C124.518 38.7987 124.491 38.6246 124.435 38.4468C124.383 38.2652 124.292 38.1041 124.163 37.9633C124.037 37.8225 123.863 37.7243 123.64 37.6687C123.563 37.6465 123.477 37.6336 123.385 37.6298C123.292 37.6224 123.209 37.6187 123.135 37.6187H121.223V40.3196Z"
        fill="#ED5993" />
    <path
        d="M112.719 44.3652V36.3628H117.887V37.6187H114.058V39.5916H117.22V40.8475H114.058V43.1093H117.887V44.3652H112.719Z"
        fill="#ED5993" />
    <path d="M106.675 44.3652L104.152 36.3628H105.531L107.642 43.0648L109.782 36.3628H111.16L108.637 44.3652H106.675Z"
        fill="#ED5993" />
    <path d="M101.22 44.3652V36.3628H102.56V44.3652H101.22Z" fill="#ED5993" />
    <path
        d="M92.4532 44.3652V36.3628H93.8092L97.5215 42.0034V36.3628H98.8774V44.3652H97.5215L93.8092 38.7246V44.3652H92.4532Z"
        fill="#ED5993" />
    <path
        d="M87.0054 44.532C86.3681 44.532 85.8069 44.4023 85.3215 44.143C84.8399 43.8836 84.462 43.5187 84.1878 43.0482C83.9174 42.5777 83.7822 42.0256 83.7822 41.3921V36.3739L85.1381 36.3628V41.3588C85.1381 41.6589 85.1882 41.9275 85.2882 42.1646C85.3919 42.4017 85.5308 42.6036 85.705 42.7703C85.8791 42.9333 86.0792 43.0574 86.3052 43.1426C86.5312 43.2279 86.7646 43.2705 87.0054 43.2705C87.2536 43.2705 87.4889 43.2279 87.7111 43.1426C87.9371 43.0537 88.1372 42.9278 88.3113 42.7648C88.4855 42.598 88.6225 42.3961 88.7226 42.159C88.8226 41.9219 88.8726 41.6552 88.8726 41.3588V36.3628H90.2286V41.3921C90.2286 42.0256 90.0915 42.5777 89.8173 43.0482C89.5469 43.5187 89.169 43.8836 88.6837 44.143C88.202 44.4023 87.6426 44.532 87.0054 44.532Z"
        fill="#ED5993" />
    <path
        d="M72.9342 44.3652V36.3628H76.2408C76.3186 36.3628 76.4186 36.3665 76.5409 36.3739C76.6631 36.3776 76.7761 36.3887 76.8799 36.4073C77.343 36.4776 77.7246 36.6314 78.0246 36.8685C78.3284 37.1056 78.5526 37.4057 78.6971 37.7688C78.8453 38.1281 78.9194 38.5283 78.9194 38.9691C78.9194 39.6212 78.7545 40.1825 78.4248 40.653C78.095 41.1198 77.5893 41.4088 76.9076 41.5199L76.3352 41.5699H74.2735V44.3652H72.9342ZM77.5301 44.3652L75.9518 41.1087L77.3133 40.8086L79.0472 44.3652H77.5301ZM74.2735 40.3196H76.1852C76.2593 40.3196 76.3427 40.3159 76.4353 40.3084C76.5279 40.301 76.6131 40.2862 76.6909 40.264C76.9132 40.2084 77.0873 40.1102 77.2133 39.9695C77.343 39.8287 77.4337 39.6694 77.4856 39.4915C77.5412 39.3137 77.569 39.1396 77.569 38.9691C77.569 38.7987 77.5412 38.6246 77.4856 38.4468C77.4337 38.2652 77.343 38.1041 77.2133 37.9633C77.0873 37.8225 76.9132 37.7243 76.6909 37.6687C76.6131 37.6465 76.5279 37.6336 76.4353 37.6298C76.3427 37.6224 76.2593 37.6187 76.1852 37.6187H74.2735V40.3196Z"
        fill="#ED5993" />
    <path
        d="M67.4932 44.532C66.8559 44.532 66.2947 44.4023 65.8093 44.143C65.3277 43.8836 64.9498 43.5187 64.6756 43.0482C64.4052 42.5777 64.27 42.0256 64.27 41.3921V36.3739L65.6259 36.3628V41.3588C65.6259 41.6589 65.6759 41.9275 65.776 42.1646C65.8797 42.4017 66.0186 42.6036 66.1928 42.7703C66.3669 42.9333 66.567 43.0574 66.793 43.1426C67.0189 43.2279 67.2524 43.2705 67.4932 43.2705C67.7414 43.2705 67.9766 43.2279 68.1989 43.1426C68.4249 43.0537 68.625 42.9278 68.7991 42.7648C68.9732 42.598 69.1103 42.3961 69.2104 42.159C69.3104 41.9219 69.3604 41.6552 69.3604 41.3588V36.3628H70.7164V41.3921C70.7164 42.0256 70.5793 42.5777 70.3051 43.0482C70.0347 43.5187 69.6568 43.8836 69.1715 44.143C68.6898 44.4023 68.1304 44.532 67.4932 44.532Z"
        fill="#ED5993" />
    <path
        d="M58.6177 44.5307C57.8175 44.5307 57.1321 44.3566 56.5615 44.0083C55.991 43.6564 55.552 43.1673 55.2445 42.5412C54.9407 41.9151 54.7888 41.1889 54.7888 40.3628C54.7888 39.5366 54.9407 38.8104 55.2445 38.1843C55.552 37.5582 55.991 37.071 56.5615 36.7228C57.1321 36.3708 57.8175 36.1948 58.6177 36.1948C59.418 36.1948 60.1034 36.3708 60.6739 36.7228C61.2481 37.071 61.6872 37.5582 61.991 38.1843C62.2985 38.8104 62.4522 39.5366 62.4522 40.3628C62.4522 41.1889 62.2985 41.9151 61.991 42.5412C61.6872 43.1673 61.2481 43.6564 60.6739 44.0083C60.1034 44.3566 59.418 44.5307 58.6177 44.5307ZM58.6177 43.2692C59.1549 43.2729 59.6013 43.1544 59.957 42.9135C60.3164 42.6727 60.585 42.3337 60.7628 41.8966C60.9444 41.4594 61.0351 40.9481 61.0351 40.3628C61.0351 39.7774 60.9444 39.2698 60.7628 38.8401C60.585 38.4066 60.3164 38.0695 59.957 37.8287C59.6013 37.5878 59.1549 37.4637 58.6177 37.4563C58.0805 37.4526 57.6341 37.5712 57.2784 37.812C56.9227 38.0528 56.6541 38.3918 56.4726 38.829C56.2948 39.2661 56.2059 39.7774 56.2059 40.3628C56.2059 40.9481 56.2948 41.4575 56.4726 41.891C56.6504 42.3208 56.9172 42.6561 57.2729 42.8969C57.6322 43.1377 58.0805 43.2618 58.6177 43.2692Z"
        fill="#ED5993" />
    <path
        d="M50.187 44.3638V41.085L47.464 36.3613H49.0256L50.865 39.5512L52.6989 36.3613H54.2605L51.543 41.085V44.3638H50.187Z"
        fill="#ED5993" />
    <path d="M137.536 12.1714H153.362V16.4877H147.607V31.5948H143.291V16.4877H137.536V12.1714Z" fill="white" />
    <path d="M88.607 12.1714V27.2785H97.5993V31.5948H84.2906V12.1714H88.607Z" fill="white" />
    <path
        d="M70.8333 23.8609V27.278H80.5451V31.5943H66.517V12.1709H80.3652V16.4872H70.8333V19.9043H79.466V23.8609H70.8333Z"
        fill="white" />
    <path
        d="M104.943 23.8609V27.278H114.654V31.5943H100.626V12.1709H114.475V16.4872H104.943V19.9043H113.575V23.8609H104.943Z"
        fill="white" />
    <path fill-rule="evenodd" clip-rule="evenodd"
        d="M121.513 21.8834C121.513 18.705 124.079 16.1283 127.244 16.1283C129.226 16.1283 130.974 17.1387 132.003 18.6746L135.725 16.5044C133.948 13.6844 130.814 11.812 127.244 11.812C121.705 11.812 117.215 16.3211 117.215 21.8834C117.215 27.4457 121.705 31.9548 127.244 31.9548C130.816 31.9548 133.951 30.0806 135.728 27.2583L132.005 25.0882C130.977 26.6263 129.228 27.6385 127.244 27.6385C124.079 27.6385 121.513 25.0619 121.513 21.8834Z"
        fill="white" />
    <path
        d="M58.3951 17.9631C58.3303 17.2604 58.0419 16.7142 57.5299 16.3245C57.0244 15.9284 56.3017 15.7304 55.362 15.7304C54.7398 15.7304 54.2213 15.8102 53.8065 15.9699C53.3917 16.1296 53.0806 16.35 52.8732 16.6311C52.6658 16.9058 52.5589 17.2221 52.5524 17.5798C52.5394 17.8737 52.5978 18.1324 52.7274 18.356C52.8635 18.5796 53.0579 18.7776 53.3107 18.9501C53.5699 19.1162 53.881 19.2632 54.244 19.3909C54.6069 19.5187 55.0152 19.6305 55.4689 19.7263L57.1799 20.1096C58.165 20.3205 59.0335 20.6016 59.7853 20.9529C60.5436 21.3043 61.1788 21.7227 61.6908 22.2083C62.2093 22.6938 62.6014 23.2528 62.8671 23.8852C63.1328 24.5177 63.2689 25.2268 63.2754 26.0126C63.2689 27.2519 62.9513 28.3156 62.3227 29.2036C61.694 30.0916 60.7899 30.772 59.6103 31.2447C58.4373 31.7175 57.0211 31.9538 55.362 31.9538C53.6963 31.9538 52.2445 31.7079 51.0067 31.216C49.7688 30.7241 48.8063 29.9766 48.1193 28.9736C47.5321 28.1163 47.1887 27.0652 47.0892 25.8203H51.7636C51.8499 26.1728 51.9897 26.4829 52.183 26.7504C52.4876 27.1721 52.9056 27.4915 53.4371 27.7087C53.975 27.9259 54.5972 28.0345 55.3036 28.0345C55.9517 28.0345 56.5026 27.9483 56.9563 27.7758C57.4165 27.6033 57.7697 27.3637 58.016 27.0571C58.2623 26.7504 58.3886 26.3991 58.3951 26.003C58.3886 25.6325 58.272 25.3162 58.0451 25.0543C57.8183 24.786 57.4683 24.556 56.9952 24.3644C56.5286 24.1663 55.9323 23.9842 55.2064 23.8181L53.126 23.339C51.402 22.9493 50.0442 22.3201 49.0526 21.4512C48.061 20.576 47.5684 19.3941 47.5749 17.9056C47.5684 16.6918 47.899 15.6281 48.5665 14.7146C49.2341 13.801 50.1576 13.0887 51.3372 12.5777C52.5168 12.0666 53.8616 11.811 55.3717 11.811C56.9142 11.811 58.2525 12.0698 59.3867 12.5872C60.5274 13.0983 61.4121 13.817 62.0407 14.7433C62.6694 15.6697 62.9902 16.7429 63.0032 17.9631V18.2855H58.3951V17.9631Z"
        fill="white" />
</svg>